<svg width="443" height="443" viewBox="0 0 443 443" fill="none" xmlns="http://www.w3.org/2000/svg">
<rect width="443" height="443" fill="black"/>
<rect x="38" y="38" width="367" height="367" rx="37" fill="white"/>
<path d="M148.725 105C164.735 105 179.114 107.123 191.862 111.37C204.611 115.617 216.767 121.987 228.329 130.481L210.985 155.113C200.312 148.601 190.084 143.788 180.3 140.673C170.812 137.559 160.732 136.002 150.059 136.002C136.717 136.002 126.192 138.691 118.484 144.071C110.776 149.167 106.921 156.245 106.921 165.305C106.921 174.365 110.479 181.443 117.595 186.539C125.007 191.635 138.2 196.59 157.174 201.403C183.265 207.632 202.684 216.125 215.432 226.884C228.477 237.642 235 252.365 235 271.051C235 293.134 225.957 309.98 207.872 321.588C190.084 333.196 168.292 339 142.499 339C106.921 339 77.4218 329.232 54 309.697L75.7912 285.915C95.6552 300.354 117.595 307.573 141.609 307.573C157.026 307.573 169.182 304.601 178.076 298.655C187.267 292.426 191.862 284.074 191.862 273.599C191.862 265.955 190.232 259.867 186.971 255.338C183.709 250.524 178.076 246.419 170.071 243.022C162.066 239.341 150.355 235.519 134.939 231.555C110.034 225.327 91.9492 216.975 80.683 206.499C69.7133 196.024 64.2285 182.717 64.2285 166.579C64.2285 154.971 67.7862 144.495 74.9017 135.152C82.3137 125.526 92.3939 118.165 105.143 113.069C118.188 107.69 132.715 105 148.725 105Z" fill="black"/>
<path fill-rule="evenodd" clip-rule="evenodd" d="M368.503 189.181H385.296V170.758L248.59 170.265L245.212 189.181H348.936V215.281C330.858 210.47 316.889 208.065 307.029 208.065C298.401 208.065 289.208 209.293 279.45 211.75C255.621 217.789 243.757 229.457 243.86 246.754C243.86 255.249 246.428 263.181 251.564 270.551C262.143 285.904 275.598 293.58 291.93 293.58C294.703 293.58 302.201 291.942 314.424 288.667C335.172 283.14 347.447 280.377 351.247 280.377C363.573 280.377 369.735 284.266 369.735 292.045C369.735 297.265 366.397 301.666 359.721 305.248C346.06 312.617 331.423 316.302 315.811 316.302C308.005 316.302 298.041 313.385 285.921 307.551C273.904 301.615 265.995 298.646 262.194 298.646C251.923 298.646 246.787 302.945 246.787 311.543C246.787 318.503 250.023 323.978 256.494 327.97C266.765 334.316 281.402 337.744 300.404 338.256C302.743 338.296 304.595 338.395 306.058 338.554C311.786 338.485 316.263 338.132 320.909 337.653C320.9 337.646 320.895 337.642 320.895 337.642C321.01 337.635 321.125 337.627 321.24 337.618C322.524 337.484 323.823 337.341 325.167 337.191C331.583 336.268 338.274 334.218 345.238 331.041C365.781 321.727 376.052 308.933 376.052 292.659C376.052 285.596 373.947 279.455 369.735 274.235C361.005 263.284 347.755 257.808 329.985 257.808C320.844 257.808 314.476 258.422 310.881 259.65C302.355 262.619 295.371 265.075 289.927 267.02C281.504 270.09 274.674 271.625 269.436 271.625C260.808 271.625 256.494 267.531 256.494 259.343C256.494 253.202 260.089 248.238 267.279 244.451C280.015 237.798 295.782 234.472 314.578 234.472C322.384 234.472 331.629 235.7 342.311 238.156C353.712 240.715 362.443 243.786 368.503 247.368V189.181Z" fill="#3881E6"/>
<path d="M369 69L319.995 89.1028L361.907 121.491L369 69ZM244.712 160.688C266.723 157.229 311.253 141.529 347.034 104.878L340.469 98.469C306.275 133.496 263.654 148.424 243.288 151.624L244.712 160.688Z" fill="#3881E6"/>
</svg>